<?xml version="1.0" encoding="UTF-8"?>
<svg xmlns="http://www.w3.org/2000/svg" height="100%" width="100%"><path d="M142.848 250.048q0 -14.508 -10.602 -25.11t-25.11 -10.602 -25.11 10.602 -10.602 25.11 10.602 25.11 25.11 10.602 25.11 -10.602 10.602 -25.11zm642.816 321.408q0 -19.53 -11.997 -45.198t-29.853 -26.226q8.37 -9.486 13.95 -26.505t5.58 -30.969q0 -38.502 -29.574 -66.402 10.044 -17.856 10.044 -38.502t-9.765 -41.013 -26.505 -29.295q2.79 -16.74 2.79 -31.248 0 -47.43 -27.342 -70.308t-75.888 -22.878h-71.424q-73.098 0 -190.836 40.734 -2.79 1.116 -16.182 5.859t-19.809 6.975 -19.53 6.417 -21.204 6.138 -18.414 3.627 -17.577 1.674h-17.856v357.12h17.856q8.928 0 19.809 5.022t22.32 15.066 21.483 19.809 22.32 24.552 19.251 23.715 17.577 22.878 12.834 16.74q30.69 37.944 42.966 50.778 22.878 23.994 33.201 61.101t17.019 70.029 21.204 47.43q53.568 0 71.424 -26.226t17.856 -80.91q0 -32.922 -26.784 -89.559t-26.784 -89.001h196.416q27.9 0 49.662 -21.483t21.762 -49.941zm71.424 .558q0 57.474 -42.408 99.882t-100.44 42.408h-98.208q26.784 55.242 26.784 107.136 0 65.844 -19.53 103.788 -19.53 38.502 -56.916 56.637t-84.258 18.135q-28.458 0 -50.22 -20.646 -18.972 -18.414 -30.132 -45.756t-14.229 -50.499 -9.765 -47.151 -17.298 -35.712q-26.784 -27.9 -59.706 -70.866 -56.358 -73.098 -76.446 -86.49h-152.892q-29.574 0 -50.499 -20.925t-20.925 -50.499v-357.12q0 -29.574 20.925 -50.499t50.499 -20.925h160.704q12.276 0 77.004 -22.32 71.424 -24.552 124.434 -36.828t111.6 -12.276h62.496q78.12 0 126.387 44.082t47.709 120.528v2.79q33.48 42.966 33.48 99.324 0 12.276 -1.674 23.994 21.204 37.386 21.204 80.352 0 20.088 -5.022 38.502 27.342 41.292 27.342 90.954z" fill="#000000"/></svg>
