<?xml version="1.0" encoding="UTF-8"?>
<svg xmlns="http://www.w3.org/2000/svg" height="100%" width="100%"><path d="M0 906.256l0 -499.968q0 -39.06 27.342 -66.402t66.402 -27.342l93.744 0q32.074 0 60.543 23.436 11.718 -5.859 33.201 -15.624 123.039 -64.449 124.992 -226.548 0 -39.06 27.342 -66.402t66.402 -27.342q56.637 0 105.462 64.449t48.825 146.475q0 66.402 -7.812 103.509 236.313 5.859 265.608 13.671 42.966 11.718 65.425 42.966t22.46 62.496l0 23.436q-1.953 39.06 -27.342 68.355 17.577 33.201 11.718 74.214 -7.812 54.684 -41.013 85.932 15.624 37.107 0 83.979 -17.577 58.59 -52.731 82.026 7.812 27.342 0 54.684 -5.859 17.577 -13.671 33.201 -33.201 60.543 -111.321 60.543l-171.864 0q-91.791 0 -185.535 -21.483 -91.791 -21.483 -126.945 -29.295l-1.953 0q0 -1.953 -2.929 -1.953l-4.883 0l0 -1.953q-27.342 54.684 -83.979 54.684l-93.744 0q-39.06 0 -66.402 -27.342t-27.342 -66.402zm62.496 0q0 13.671 8.789 22.46t22.46 8.789l93.744 0q13.671 0 22.46 -8.789t8.789 -22.46l0 -499.968q0 -13.671 -8.789 -22.46t-22.46 -8.789l-93.744 0q-13.671 0 -22.46 8.789t-8.789 22.46l0 499.968zm31.248 -46.872q0 -19.53 13.671 -33.201t33.201 -13.671 33.201 13.671 13.671 33.201 -13.671 33.201 -33.201 13.671 -33.201 -13.671 -13.671 -33.201zm31.248 0q0 15.624 15.624 15.624t15.624 -15.624 -15.624 -15.624 -15.624 15.624zm124.992 -3.906q0 23.436 27.342 27.342 21.483 5.859 144.522 35.154 87.885 19.53 171.864 19.53l171.864 0q41.013 0 56.637 -27.342 5.859 -15.624 7.812 -23.436 5.859 -11.718 -1.953 -27.342t-29.295 -15.624l-48.825 0q-15.624 0 -15.624 -15.624t15.624 -15.624l50.778 0q31.248 0 48.825 -10.742t22.46 -19.53 10.742 -30.271q21.483 -64.449 -39.06 -64.449l-62.496 0q-15.624 0 -15.624 -15.624t15.624 -15.624l74.214 0q56.637 0 68.355 -66.402 1.953 -21.483 -8.789 -40.037t-41.989 -18.553l-60.543 0q-15.624 0 -15.624 -15.624t15.624 -15.624l62.496 0q60.543 0 62.496 -44.919l0 -21.483q0 -37.107 -37.107 -46.872 -44.919 -11.718 -337.869 -11.718 19.53 -58.59 24.413 -83.979t4.883 -80.073q0 -56.637 -32.224 -102.532t-59.567 -45.895q-31.248 0 -31.248 31.248 -1.953 91.791 -45.895 172.841t-141.593 122.063q-1.953 0 -3.906 .977l-1.953 .977q-25.389 7.812 -25.389 33.201l0 431.613z" fill="#000000"/></svg>
